HIERARCHY
ROOT Hips
{
	OFFSET -0.001795 -0.223333 0.028219
	CHANNELS 6 Xposition Yposition Zposition Zrotation Yrotation Xrotation 
	JOINT LeftUpLeg
	{
		OFFSET 0.069520 -0.091406 -0.006815
		CHANNELS 3 Zrotation Yrotation Xrotation
		JOINT LeftLeg
		{
			OFFSET 0.034277 -0.375199 -0.004496
			CHANNELS 3 Zrotation Yrotation Xrotation
			JOINT LeftFoot
			{
				OFFSET -0.013596 -0.397961 -0.043693
				CHANNELS 3 Zrotation Yrotation Xrotation
				JOINT LeftToe
				{
					OFFSET 0.026358 -0.055791 0.119288
					CHANNELS 3 Zrotation Yrotation Xrotation
					End Site
					{
						OFFSET 0.000000 0.000000 0.000000
					}
				}
			}
		}
	}
	JOINT RightUpLeg
	{
		OFFSET -0.067670 -0.090522 -0.004320
		CHANNELS 3 Zrotation Yrotation Xrotation
		JOINT RightLeg
		{
			OFFSET -0.038290 -0.382569 -0.008850
			CHANNELS 3 Zrotation Yrotation Xrotation
			JOINT RightFoot
			{
				OFFSET 0.015774 -0.398415 -0.042312
				CHANNELS 3 Zrotation Yrotation Xrotation
				JOINT RightToe
				{
					OFFSET -0.025372 -0.048144 0.123348
					CHANNELS 3 Zrotation Yrotation Xrotation
					End Site
					{
						OFFSET 0.000000 0.000000 0.000000
					}
				}
			}
		}
	}
	JOINT Spine
	{
		OFFSET -0.002533 0.108963 -0.026696
		CHANNELS 3 Zrotation Yrotation Xrotation
		JOINT Spine1
		{
			OFFSET 0.005487 0.135180 0.001092
			CHANNELS 3 Zrotation Yrotation Xrotation
			JOINT Spine2
			{
				OFFSET 0.001457 0.052922 0.025425
				CHANNELS 3 Zrotation Yrotation Xrotation
				JOINT Neck
				{
					OFFSET -0.002778 0.213870 -0.042857
					CHANNELS 3 Zrotation Yrotation Xrotation
					JOINT Head
					{
						OFFSET 0.005152 0.064970 0.051349
						CHANNELS 3 Zrotation Yrotation Xrotation
						End Site
						{
							OFFSET 0.000000 0.000000 0.000000
						}
					}
				}
				JOINT LeftShoulder
				{
					OFFSET 0.078845 0.121749 -0.034090
					CHANNELS 3 Zrotation Yrotation Xrotation
					JOINT LeftArm
					{
						OFFSET 0.090977 0.030469 -0.008868
						CHANNELS 3 Zrotation Yrotation Xrotation
						JOINT LeftForeArm
						{
							OFFSET 0.259612 -0.012772 -0.027456
							CHANNELS 3 Zrotation Yrotation Xrotation
							JOINT LeftHand
							{
								OFFSET 0.249234 0.008986 -0.001171
								CHANNELS 3 Zrotation Yrotation Xrotation
								End Site
								{
									OFFSET 0.000000 0.000000 0.000000
								}
							}
						}
					}
				}
				JOINT RightShoulder
				{
					OFFSET -0.081759 0.118833 -0.038615
					CHANNELS 3 Zrotation Yrotation Xrotation
					JOINT RightArm
					{
						OFFSET -0.096012 0.032551 -0.009143
						CHANNELS 3 Zrotation Yrotation Xrotation
						JOINT RightForeArm
						{
							OFFSET -0.253742 -0.013329 -0.021401
							CHANNELS 3 Zrotation Yrotation Xrotation
							JOINT RightHand
							{
								OFFSET -0.255298 0.007772 -0.005559
								CHANNELS 3 Zrotation Yrotation Xrotation
								End Site
								{
									OFFSET 0.000000 0.000000 0.000000
								}
							}
						}
					}
				}
			}
		}
	}
}
MOTION
Frames: 18
Frame Time: 0.050000
0.846767 0.975298 0.283395 -2.464193 20.375852 8.507900 5.265415 -1.093933 -12.830520 -2.941830 -0.008633 6.591037 9.404863 20.707536 13.392793 0.000000 0.000000 0.000000 7.751719 3.091695 -27.697117 0.561834 -0.626537 23.219628 -5.029974 -12.028711 9.120375 0.000000 0.000000 0.000000 1.413946 -0.046273 -0.415502 0.238953 0.252680 -4.830217 -2.062691 7.851927 4.774915 13.073347 -6.760678 -10.508991 0.000000 0.000000 0.000000 10.040857 -14.917358 5.853010 -65.205420 -7.015764 -8.542381 -10.963941 -31.850669 2.828987 0.000000 0.000000 0.000000 -8.987391 11.258826 2.722515 83.115918 4.565306 3.413915 -4.847828 30.975756 0.249653 0.000000 0.000000 0.000000 
0.846206 0.973629 0.280227 -3.695095 12.452037 8.885242 6.975879 -0.807964 -10.974478 -3.362806 0.171763 5.690694 10.795607 22.287176 14.928353 0.000000 0.000000 0.000000 7.914065 3.865370 -29.692620 1.436023 -0.316931 22.910891 -3.621806 -9.891148 7.455816 0.000000 0.000000 0.000000 2.379962 -0.143853 0.650898 -0.012403 0.269960 -4.788410 -0.949589 7.510414 4.822352 12.675801 -6.687850 -10.912435 0.000000 0.000000 0.000000 11.043279 -14.451338 5.518425 -67.692885 -5.961415 -8.591163 -12.301434 -32.672129 3.779965 0.000000 0.000000 0.000000 -9.547196 12.386437 3.185777 83.531428 6.926336 3.421168 -5.716553 33.755229 0.032285 0.000000 0.000000 0.000000 
0.844660 0.971107 0.280215 -4.009399 6.278816 9.174539 7.675111 -0.605165 -9.189895 -4.280653 0.382946 5.336542 12.032976 23.603587 14.988805 0.000000 0.000000 0.000000 6.161252 4.100142 -30.994061 2.830117 -0.345773 22.299085 -4.986882 -13.263156 6.735908 0.000000 0.000000 0.000000 3.199362 -0.255237 1.717841 -0.092718 0.235693 -4.811236 -0.552182 6.367728 4.915092 11.715364 -6.085065 -11.850092 0.000000 0.000000 0.000000 11.007672 -13.829719 5.018801 -69.471491 -7.116252 -6.911948 -12.440503 -33.727697 4.368519 0.000000 0.000000 0.000000 -10.406311 13.477530 3.619819 83.748223 9.088143 3.319161 -5.478637 35.299727 -0.011155 0.000000 0.000000 0.000000 
0.840906 0.965415 0.284139 -4.326186 -0.104982 9.471604 8.131269 -0.404275 -6.461597 -5.528781 0.650922 3.792205 14.811831 26.871123 16.874257 0.000000 0.000000 0.000000 4.655703 4.471739 -32.442799 4.423903 -0.426465 22.144949 -5.557655 -15.030455 6.659352 0.000000 0.000000 0.000000 3.419739 -0.357265 3.014101 0.775545 -0.171394 -5.588065 -0.877654 6.145456 5.758648 12.160121 -6.394427 -13.053489 0.000000 0.000000 0.000000 11.626495 -13.217708 4.589088 -70.535138 -8.626578 -5.065604 -14.742990 -33.539863 5.354168 0.000000 0.000000 0.000000 -9.595397 12.383345 3.599662 83.013842 9.064315 1.531400 -2.935441 39.582529 0.815947 0.000000 0.000000 0.000000 
0.833235 0.960476 0.291453 -4.690234 -6.186977 9.368040 7.740705 -0.242183 -4.150973 -5.249688 0.708596 3.515286 16.484460 28.749758 17.754960 0.000000 0.000000 0.000000 3.378004 4.904936 -33.684512 5.988455 -0.503535 21.588581 -7.048556 -18.738759 7.793968 0.000000 0.000000 0.000000 3.667988 -0.406785 3.650710 1.029037 -0.364604 -5.059825 -0.719523 5.359323 5.559407 12.140214 -6.367060 -14.510545 0.000000 0.000000 0.000000 11.730356 -13.483128 4.300590 -71.226129 -10.118444 -2.783558 -13.031076 -34.537534 5.291732 0.000000 0.000000 0.000000 -9.845826 12.487250 3.863710 83.545840 9.505634 0.070379 -1.332661 43.313236 1.272672 0.000000 0.000000 0.000000 
0.820542 0.954491 0.302223 -4.728735 -11.664382 9.676609 6.919956 -0.098756 -1.692458 -4.584150 0.658209 2.134371 19.742712 32.544048 19.645558 0.000000 0.000000 0.000000 1.015691 5.002865 -34.679718 6.865711 -0.426127 20.393479 -11.653098 -27.723344 10.013967 0.000000 0.000000 0.000000 4.156595 -0.477982 4.362135 0.755498 -0.312205 -5.236833 -1.037009 3.794373 7.003951 11.203721 -5.846291 -16.463883 0.000000 0.000000 0.000000 12.651846 -13.304684 3.789875 -72.091352 -12.905469 0.555747 -9.758045 -35.058378 4.659320 0.000000 0.000000 0.000000 -9.222140 10.949566 3.770434 83.133564 8.604800 -2.905821 2.552521 46.751371 2.636320 0.000000 0.000000 0.000000 
0.801357 0.950229 0.316286 -4.549509 -16.648900 10.468795 5.781433 0.038218 0.455081 -3.381493 0.502126 0.660586 22.343575 34.770962 23.208165 0.000000 0.000000 0.000000 0.654535 5.390474 -34.714274 7.143672 -0.298045 17.667827 -13.919493 -31.743477 11.575880 0.000000 0.000000 0.000000 3.962313 -0.455767 4.288485 1.903694 -0.821292 -4.896833 -2.480929 3.376317 7.143830 10.555479 -5.466270 -17.940652 0.000000 0.000000 0.000000 12.865308 -13.720794 3.623696 -71.041945 -14.671565 2.655600 -6.238177 -35.807778 3.777275 0.000000 0.000000 0.000000 -6.876755 9.901147 3.610128 82.018178 6.165476 -5.979278 5.740991 47.431639 3.662084 0.000000 0.000000 0.000000 
0.774316 0.945874 0.334857 -4.758027 -21.102455 11.218542 5.035777 0.197479 2.328550 -2.296915 0.383578 2.668423 23.884254 35.532007 26.456464 0.000000 0.000000 0.000000 2.307897 6.399233 -35.350307 6.984666 -0.060772 17.375494 -14.278986 -32.420903 15.588695 0.000000 0.000000 0.000000 3.854759 -0.421615 3.938327 1.782835 -0.793282 -4.006358 -2.151701 1.851888 6.995727 9.453198 -5.049781 -18.890656 0.000000 0.000000 0.000000 13.211413 -13.107853 3.112119 -72.716921 -15.793964 5.098643 -1.654396 -36.785844 2.576824 0.000000 0.000000 0.000000 -6.191994 9.554482 3.651434 79.822978 4.269972 -8.658317 12.123496 45.098891 5.450897 0.000000 0.000000 0.000000 
0.738410 0.941923 0.358903 -4.516404 -26.443394 12.087645 5.729393 0.355681 3.412975 -3.536258 0.841771 6.139941 22.289670 33.227985 26.805835 0.000000 0.000000 0.000000 4.027563 7.004782 -34.310726 7.206292 0.178209 17.567828 -12.831671 -30.849436 14.460489 0.000000 0.000000 0.000000 3.443011 -0.326262 2.849717 1.349581 -0.638741 -4.178377 -2.696651 1.651657 7.553087 9.045447 -5.168236 -18.693381 0.000000 0.000000 0.000000 13.963261 -12.345491 2.522874 -73.426106 -14.607725 5.619866 -0.231223 -38.484342 2.426091 0.000000 0.000000 0.000000 -5.579595 9.189797 3.607344 79.794744 2.214172 -11.395334 13.895664 41.010035 5.209564 0.000000 0.000000 0.000000 
0.695463 0.938469 0.387002 -5.089255 -31.331890 12.931745 8.888017 0.606626 4.008044 -6.907565 2.443257 11.278586 21.898827 30.912107 31.267461 0.000000 0.000000 0.000000 6.627623 7.362551 -32.335685 7.346920 0.550767 19.241728 -12.162400 -30.004908 13.669685 0.000000 0.000000 0.000000 3.500935 -0.228794 1.354410 1.530879 -0.642878 -2.643616 -2.964927 2.434267 6.521038 8.149884 -4.649715 -19.758376 0.000000 0.000000 0.000000 13.311591 -11.795503 2.362263 -73.841889 -13.040819 5.127725 1.145772 -40.288009 2.219309 0.000000 0.000000 0.000000 -4.924444 8.883248 3.480177 77.522557 1.620322 -11.652938 14.050558 34.940582 4.272882 0.000000 0.000000 0.000000 
0.649724 0.936524 0.416329 -5.218527 -37.822670 12.929142 11.396016 0.966796 0.126826 -8.033218 6.770026 25.974865 17.098234 24.075619 33.107913 0.000000 0.000000 0.000000 9.626454 7.180950 -28.921496 5.926438 1.531230 22.124728 -8.836109 -23.884474 8.030286 0.000000 0.000000 0.000000 3.773631 -0.231236 1.364165 -0.039425 -0.157257 -4.653365 -2.123699 3.102395 8.101798 7.136107 -4.441284 -20.873265 0.000000 0.000000 0.000000 12.017889 -10.813464 1.961122 -74.450090 -9.089592 3.440128 1.543598 -42.545523 2.622198 0.000000 0.000000 0.000000 -7.584873 9.508028 4.221254 79.727035 1.957493 -13.967781 16.500188 30.850935 4.244778 0.000000 0.000000 0.000000 
0.605914 0.934446 0.445960 -5.709874 -43.748767 12.096865 12.255073 1.693304 -6.763312 -1.309876 10.951688 44.831110 6.671223 11.923517 26.012263 0.000000 0.000000 0.000000 12.937637 5.913249 -23.295998 3.187747 2.631236 23.252793 -7.121369 -17.031278 1.429093 0.000000 0.000000 0.000000 4.468358 -0.362370 3.319863 -0.538298 -0.046085 -5.264299 -2.630626 6.685879 8.199170 8.621578 -5.108928 -21.827245 0.000000 0.000000 0.000000 11.871452 -11.478856 2.154798 -75.631468 -8.491363 2.947756 1.476535 -42.206622 2.571869 0.000000 0.000000 0.000000 -6.415687 8.667107 3.758047 78.292839 1.579998 -13.630820 16.165304 29.623518 4.015320 0.000000 0.000000 0.000000 
0.563123 0.936780 0.477256 -5.045263 -49.505889 10.355417 10.162332 2.475673 -15.034672 7.789111 12.136828 59.209245 1.089514 4.629446 19.338231 0.000000 0.000000 0.000000 15.549580 3.855827 -16.338192 -0.928006 3.129508 20.643756 -5.587919 -11.204802 -0.447686 0.000000 0.000000 0.000000 4.373809 -0.375635 4.320894 -2.275310 0.583945 -5.219633 -1.881371 9.253311 9.046080 8.765086 -5.395108 -21.536907 0.000000 0.000000 0.000000 11.793759 -10.626224 1.793672 -76.978415 -7.692804 2.873619 -0.326345 -41.401879 3.207975 0.000000 0.000000 0.000000 -7.222445 9.214726 4.058961 78.007503 4.518086 -12.095338 16.075100 27.980610 3.773340 0.000000 0.000000 0.000000 
0.518624 0.940532 0.510113 -4.257667 -54.835879 9.232011 8.429688 4.049372 -22.851471 12.640369 11.018493 62.516273 -1.113350 0.077925 11.756177 0.000000 0.000000 0.000000 15.938840 1.673202 -9.394657 -4.166077 2.755656 16.261804 -3.631490 -4.081710 -2.225242 0.000000 0.000000 0.000000 3.269746 -0.307079 4.274848 -2.409244 0.555053 -5.673358 -1.230500 13.135344 9.592848 9.518516 -6.016145 -19.994373 0.000000 0.000000 0.000000 11.885274 -10.809319 1.789277 -78.580480 -5.873353 1.649510 -3.096823 -41.055062 4.112416 0.000000 0.000000 0.000000 -8.348132 9.173371 4.233837 78.591129 7.119380 -10.660008 15.046213 29.076922 3.753522 0.000000 0.000000 0.000000 
0.470831 0.943967 0.544840 -3.083053 -60.552492 8.309456 5.562271 5.982232 -30.576769 11.386323 10.240087 56.298760 0.244244 0.873222 5.573649 0.000000 0.000000 0.000000 14.628085 -0.012213 -2.632943 -6.659743 2.012306 11.362257 0.105115 2.138913 -0.372894 0.000000 0.000000 0.000000 2.658830 -0.261911 3.997195 -3.943469 0.943726 -6.854086 0.160170 16.530663 10.276692 10.384392 -6.527084 -20.565638 0.000000 0.000000 0.000000 11.346838 -10.064320 1.568841 -78.431682 -2.933241 -0.313517 -7.401886 -41.231369 5.839012 0.000000 0.000000 0.000000 -8.257063 9.509152 4.349436 77.783623 9.032162 -9.498231 15.527159 30.350866 3.963449 0.000000 0.000000 0.000000 
0.419080 0.943034 0.581573 -2.253073 -65.109052 8.247540 3.395686 7.592406 -35.239474 5.477888 7.484661 40.056101 1.927036 2.994628 5.296563 0.000000 0.000000 0.000000 12.207374 -0.691114 2.399742 -7.303618 1.475123 8.534608 2.401034 6.607405 0.007900 0.000000 0.000000 0.000000 2.663647 -0.182086 1.978312 -3.984018 0.875189 -7.337042 -0.474033 20.501877 10.570163 11.979770 -7.589462 -19.363283 0.000000 0.000000 0.000000 12.588989 -11.173467 1.616733 -78.873900 -0.534487 -2.140921 -10.659985 -40.258969 6.755663 0.000000 0.000000 0.000000 -8.011616 10.473310 4.490450 78.510969 10.361085 -8.575946 13.630019 32.485093 3.834977 0.000000 0.000000 0.000000 
0.362753 0.936033 0.620578 -1.059147 -68.562407 7.245201 1.264929 7.275466 -35.591321 1.242335 2.607731 19.051987 4.406827 5.235926 11.208354 0.000000 0.000000 0.000000 9.514562 -0.606784 6.693080 -8.310437 1.611742 8.565668 3.563898 9.475407 -0.284593 0.000000 0.000000 0.000000 2.489081 -0.146054 1.422306 -4.404640 0.772817 -8.898541 0.260945 23.200590 11.122701 12.745119 -8.124838 -19.144823 0.000000 0.000000 0.000000 13.531513 -11.179939 1.341903 -78.896670 2.587456 -4.093790 -13.734009 -39.273274 7.658414 0.000000 0.000000 0.000000 -7.173188 10.488324 4.386580 77.228846 11.424288 -7.678761 12.993328 33.559924 3.707190 0.000000 0.000000 0.000000 
0.301545 0.926303 0.661084 -1.769603 -70.273685 8.067480 -0.181351 6.655555 -34.982521 1.270811 0.260031 5.757210 1.815955 0.763222 16.733562 0.000000 0.000000 0.000000 8.438990 -0.183638 10.514943 -8.421068 1.928465 9.942638 4.943332 7.882080 2.455541 0.000000 0.000000 0.000000 4.047858 0.023381 -0.672929 -5.680367 1.100687 -9.693340 1.211279 23.777539 13.001460 12.198557 -8.052774 -19.104924 0.000000 0.000000 0.000000 12.362343 -13.066636 1.968866 -79.387991 2.692373 -4.074754 -9.747063 -37.800269 5.913807 0.000000 0.000000 0.000000 -7.801792 11.339370 4.733312 78.511805 12.101300 -8.294319 13.387258 33.579367 3.775072 0.000000 0.000000 0.000000 
